<svg width="67" height="74" viewBox="0 0 67 74" fill="none" xmlns="http://www.w3.org/2000/svg">
<path d="M3.36008 42.0255L30.2407 3.4629V42.0255H3.36008ZM35.2808 42.0255C39.817 29.4178 39.2121 12.4732 35.2808 0C51.2748 5.17754 63.5055 24.8791 63.7071 42.0255H35.2808ZM64.1775 54.0615C62.7999 56.2132 61.1871 58.0624 59.3054 59.6425C57.1214 58.6675 55.1725 57.1546 53.6269 55.4736C48.6204 61.9623 38.5065 61.9623 33.5 55.4736C28.5607 61.9623 18.3796 61.9623 13.4403 55.4736C11.7603 57.1546 9.91224 58.6675 7.72819 59.6425C3.89769 56.4822 1.00802 51.9771 0 47.0685H67C66.4624 49.59 65.5216 51.9098 64.1775 54.0615ZM63.7071 73.9648C60.1454 73.9648 56.7854 73.1243 53.6269 71.4433C47.4443 74.8053 39.6825 74.8053 33.5 71.4433C27.3175 74.8053 19.5557 74.8053 13.4403 71.4433C9.30742 73.7631 4.56971 74.1329 0 73.9648V67.2407C4.73771 67.4088 9.30742 66.9045 13.4403 63.8787C19.2869 68.0812 27.5863 68.0812 33.5 63.8787C39.4473 68.0812 47.7131 68.0812 53.6269 63.8787C57.6926 66.9045 62.2959 67.4088 67 67.2407V73.9648H63.7071Z" fill="#415A77"/>
</svg>
