<svg width="62" height="74" viewBox="0 0 62 74" fill="none" xmlns="http://www.w3.org/2000/svg">
<path d="M54.25 35.0526H7.75V15.5789H54.25M48.4375 58.4211C46.8959 58.4211 45.4175 57.8055 44.3274 56.7099C43.2374 55.6143 42.625 54.1284 42.625 52.5789C42.625 51.0295 43.2374 49.5436 44.3274 48.448C45.4175 47.3523 46.8959 46.7368 48.4375 46.7368C49.9791 46.7368 51.4575 47.3523 52.5476 48.448C53.6376 49.5436 54.25 51.0295 54.25 52.5789C54.25 54.1284 53.6376 55.6143 52.5476 56.7099C51.4575 57.8055 49.9791 58.4211 48.4375 58.4211ZM13.5625 58.4211C12.0209 58.4211 10.5425 57.8055 9.45244 56.7099C8.36239 55.6143 7.75 54.1284 7.75 52.5789C7.75 51.0295 8.36239 49.5436 9.45244 48.448C10.5425 47.3523 12.0209 46.7368 13.5625 46.7368C15.1041 46.7368 16.5825 47.3523 17.6726 48.448C18.7626 49.5436 19.375 51.0295 19.375 52.5789C19.375 54.1284 18.7626 55.6143 17.6726 56.7099C16.5825 57.8055 15.1041 58.4211 13.5625 58.4211ZM0 54.5263C0 57.9537 1.51125 61.0305 3.875 63.1726V70.1053C3.875 71.1382 4.28326 72.1289 5.00996 72.8593C5.73667 73.5897 6.72229 74 7.75 74H11.625C12.6527 74 13.6383 73.5897 14.365 72.8593C15.0917 72.1289 15.5 71.1382 15.5 70.1053V66.2105H46.5V70.1053C46.5 71.1382 46.9083 72.1289 47.635 72.8593C48.3617 73.5897 49.3473 74 50.375 74H54.25C55.2777 74 56.2633 73.5897 56.99 72.8593C57.7167 72.1289 58.125 71.1382 58.125 70.1053V63.1726C60.4888 61.0305 62 57.9537 62 54.5263V15.5789C62 1.94737 48.1275 0 31 0C13.8725 0 0 1.94737 0 15.5789V54.5263Z" fill="#415A77"/>
</svg>
