<svg width="74" height="74" viewBox="0 0 74 74" fill="none" xmlns="http://www.w3.org/2000/svg">
<path d="M49.3333 65.7778L24.6667 57.1033V8.22222L49.3333 16.8967M71.9444 0C71.6978 0 71.4922 0 71.2867 0L49.3333 8.63333L24.6667 0L1.48 7.81111C0.616666 8.09889 0 8.83889 0 9.78444V71.9444C0 72.4896 0.216567 73.0125 0.602059 73.3979C0.98755 73.7834 1.51039 74 2.05556 74C2.26111 74 2.50778 74 2.71333 73.8767L24.6667 65.3667L49.3333 74L72.52 66.1889C73.3833 65.7778 74 65.1611 74 64.2156V2.05556C74 1.51039 73.7834 0.98755 73.3979 0.602059C73.0125 0.216567 72.4896 0 71.9444 0Z" fill="#415A77"/>
</svg>
