<svg width="83" height="74" viewBox="0 0 83 74" fill="none" xmlns="http://www.w3.org/2000/svg">
<path d="M9.22222 27.75L16.1389 6.9375H66.8611L73.7778 27.75M66.8611 50.875C65.0267 50.875 63.2674 50.1441 61.9703 48.8431C60.6732 47.542 59.9444 45.7774 59.9444 43.9375C59.9444 42.0976 60.6732 40.333 61.9703 39.0319C63.2674 37.7309 65.0267 37 66.8611 37C68.6955 37 70.4548 37.7309 71.7519 39.0319C73.0491 40.333 73.7778 42.0976 73.7778 43.9375C73.7778 45.7774 73.0491 47.542 71.7519 48.8431C70.4548 50.1441 68.6955 50.875 66.8611 50.875ZM16.1389 50.875C14.3045 50.875 12.5452 50.1441 11.2481 48.8431C9.95094 47.542 9.22222 45.7774 9.22222 43.9375C9.22222 42.0976 9.95094 40.333 11.2481 39.0319C12.5452 37.7309 14.3045 37 16.1389 37C17.9733 37 19.7326 37.7309 21.0297 39.0319C22.3268 40.333 23.0556 42.0976 23.0556 43.9375C23.0556 45.7774 22.3268 47.542 21.0297 48.8431C19.7326 50.1441 17.9733 50.875 16.1389 50.875ZM73.4089 4.625C72.4867 1.9425 69.9044 0 66.8611 0H16.1389C13.0956 0 10.5133 1.9425 9.59111 4.625L0 32.375V69.375C0 70.6016 0.485812 71.778 1.35056 72.6454C2.21531 73.5127 3.38817 74 4.61111 74H9.22222C10.4452 74 11.618 73.5127 12.4828 72.6454C13.3475 71.778 13.8333 70.6016 13.8333 69.375V64.75H69.1667V69.375C69.1667 70.6016 69.6525 71.778 70.5172 72.6454C71.382 73.5127 72.5548 74 73.7778 74H78.3889C79.6118 74 80.7847 73.5127 81.6494 72.6454C82.5142 71.778 83 70.6016 83 69.375V32.375L73.4089 4.625Z" fill="#415A77"/>
</svg>
